<?xml version="1.0" encoding="UTF-8"?>
<svg version="1.1" xmlns="http://www.w3.org/2000/svg" width="64" height="64">
<path d="M0 0 C5.48232591 3.3176307 9.71033663 8.26852212 11.5 14.4375 C11.76272837 17.87886633 11.73323535 21.3005915 11.6875 24.75 C11.68685547 25.66201172 11.68621094 26.57402344 11.68554688 27.51367188 C11.59103428 42.16312387 11.59103428 42.16312387 9.08203125 45.09375 C5.06647332 47.00845312 2.05612233 47.96728167 -2.5 47.4375 C-3.16 47.1075 -3.82 46.7775 -4.5 46.4375 C-4.77933384 26.35650076 -4.77933384 26.35650076 -1.5 21.4375 C1.5625 21.1875 1.5625 21.1875 4.5 21.4375 C4.83 21.7675 5.16 22.0975 5.5 22.4375 C5.9743947 16.62616497 5.18582784 12.88249835 1.5 8.4375 C-3.64527921 4.25696064 -8.06038287 3.80421484 -14.625 4.05859375 C-19.47351618 4.69759656 -22.59403884 6.13896773 -25.80859375 10.015625 C-28.49197458 14.13818932 -28.90484788 17.4781135 -28.5 22.4375 C-28.17 22.1075 -27.84 21.7775 -27.5 21.4375 C-24.5625 21.1875 -24.5625 21.1875 -21.5 21.4375 C-16.92112306 28.30581541 -18.3891082 38.46561197 -18.5 46.4375 C-21.83301058 48.10400529 -24.88090519 47.95627119 -28.4140625 46.82421875 C-32.05743583 45.12247853 -32.05743583 45.12247853 -33.5 43.4375 C-34.68595047 37.33053666 -34.7456909 31.14629276 -34.8125 24.9375 C-34.84150391 24.03902344 -34.87050781 23.14054687 -34.90039062 22.21484375 C-34.9680144 15.06753106 -33.46386513 9.87213566 -28.75390625 4.4140625 C-28.19574219 3.96804687 -27.63757813 3.52203125 -27.0625 3.0625 C-26.50691406 2.60101562 -25.95132812 2.13953125 -25.37890625 1.6640625 C-18.26200064 -2.98190083 -7.75430963 -3.49468887 0 0 Z " fill="#FF37A1" transform="translate(43.5,7.5625)"/>
<path d="M0 0 C1.32 0 2.64 0 4 0 C3.6875 2.375 3.6875 2.375 3 5 C-0.15314785 7.10209857 -0.86103081 7.2434761 -4.44921875 7.1953125 C-5.72055664 7.18564453 -5.72055664 7.18564453 -7.01757812 7.17578125 C-7.89865234 7.15902344 -8.77972656 7.14226563 -9.6875 7.125 C-10.58017578 7.11597656 -11.47285156 7.10695313 -12.39257812 7.09765625 C-14.59532314 7.07409748 -16.79752588 7.04120329 -19 7 C-19 5.68 -19 4.36 -19 3 C-12.73 2.67 -6.46 2.34 0 2 C0 1.34 0 0.68 0 0 Z " fill="#FF38A0" transform="translate(47,55)"/>
</svg>
